<svg xmlns="http://www.w3.org/2000/svg" viewBox="0 0 32 32" role="img" aria-label="Maya">
  <defs>
    <linearGradient id="g" x1="0%" y1="0%" x2="100%" y2="100%">
      <stop offset="0%" stop-color="#db2777"/>
      <stop offset="100%" stop-color="#ec4899"/>
    </linearGradient>
  </defs>
  <rect width="32" height="32" rx="8" fill="url(#g)"/>
  <path fill="#fff" d="M16 6c-3.2 0-5.8 2.4-6 5.5-.1 1.2.2 2.3.8 3.2l-1.5 4.8 4.9-1.6c.8.4 1.7.6 2.8.6 3.3 0 6-2.7 6-6s-2.7-6-6-6zm0 10.2c-.8 0-1.6-.2-2.3-.5l-.3-.1-2.1.7.7-2.1-.2-.3c-.5-.8-.8-1.7-.7-2.7.2-2.4 2.3-4.2 4.7-4.2 2.6 0 4.8 2.1 4.8 4.8s-2.2 4.4-4.9 4.4z"/>
  <circle cx="13" cy="14.5" r="1" fill="#db2777"/>
  <circle cx="16" cy="14.5" r="1" fill="#db2777"/>
  <circle cx="19" cy="14.5" r="1" fill="#db2777"/>
</svg>
